<svg xmlns="http://www.w3.org/2000/svg" width="200" height="186.9946" viewBox="0 0 200 186.9946"><defs><style>.cls-1{fill:#2e5cd4;}.cls-2{fill:#231f20;}</style></defs><g id="Logo"><path class="cls-1" d="M116.0656,42.0623s39.5321,7.5815,23.286,48.4674l32.4019,17.551V48.3148a18.2421,18.2421,0,0,0-9.424-15.9692l-14.5241-8.02Z"/><path class="cls-1" d="M168.5291,120.464a18.2088,18.2088,0,0,1-3.9108,4.11l-.3569-.199-.5655-.3159-37.6106-21.0734,4.0593-3.5191,36.78,20.1068.1642.0916Z"/><path class="cls-1" d="M51.6228,42.0623,115.66,6.5749,107.87,2.273a18.2423,18.2423,0,0,0-17.8413.1148L37.4656,32.3027a18.2388,18.2388,0,0,0-8.169,9.76Z"/><polygon class="cls-1" points="79.647 42.062 88.989 42.062 134.67 17.072 129.941 14.461 79.647 42.062"/><path class="cls-1" d="M149.6408,130.6034,106.86,107.0466H82.7611V140.351L64.62,131.1449V68.056h44.6767c4.7853-.4827,8.3,2.6147,8.3938,5.1446.0963,2.6055-3.3824,6.0813-8.3938,5.6861H83.0319v9.4769h26.2645c9.94,1.0647,17.9551-6.9648,17.6-15.163-.3376-7.7906-8.1962-14.8791-17.6-13.8092h-81.05V110.264a18.2424,18.2424,0,0,0,9.6672,16.1012l52.5562,27.99a18.2423,18.2423,0,0,0,16.9493.1052l44.1567-22.817Z"/></g><g id="Text"><path class="cls-2" d="M0,186.6475V166.2963H6.594a23.912,23.912,0,0,1,4.8865.3054,5.3367,5.3367,0,0,1,2.9292,1.9922,6.3178,6.3178,0,0,1,1.18,3.9632,6.6424,6.6424,0,0,1-.68,3.1513,5.578,5.578,0,0,1-1.7283,2.0058,5.9529,5.9529,0,0,1-2.1309.965,23.4608,23.4608,0,0,1-4.2618.2915H4.1091v7.6768Zm4.1091-16.9084v5.7749H6.358a10.6251,10.6251,0,0,0,3.2484-.3193,2.6975,2.6975,0,0,0,1.2841-1,2.7352,2.7352,0,0,0,.4651-1.5825,2.629,2.629,0,0,0-.6525-1.8325,2.8419,2.8419,0,0,0-1.6519-.9023,19.7476,19.7476,0,0,0-2.9569-.1388Z"/><path class="cls-2" d="M35.2051,186.6475h-4.47l-1.777-4.6228H20.8232l-1.68,4.6228h-4.359l7.9267-20.3512h4.3451Zm-7.5658-8.0516-2.8042-7.5519-2.7486,7.5519Z"/><path class="cls-2" d="M39.8556,186.6475V169.7391H33.8169v-3.4428H49.99v3.4428H43.9647v16.9084Z"/><path class="cls-2" d="M52.6827,186.6475V166.2963h3.9981L65.01,179.8869V166.2963h3.8176v20.3512h-4.123L56.5,173.3762v13.2713Z"/><path class="cls-2" d="M91.525,186.6475h-4.47l-1.7769-4.6228H77.1431l-1.68,4.6228h-4.359l7.9267-20.3512h4.3451Zm-7.5658-8.0516L81.155,171.044l-2.7487,7.5519Z"/><path class="cls-2" d="M100.4928,186.6475V166.2963h6.15l3.6927,13.8821,3.651-13.8821H120.15v20.3512h-3.8176v-16.02l-4.04,16.02h-3.9564l-4.0258-16.02v16.02Z"/><path class="cls-2" d="M124.2313,186.6475V166.2963h15.09v3.4428H128.34v4.5117h10.2172V177.68H128.34v5.539h11.37v3.4289Z"/><path class="cls-2" d="M147.7754,186.6475V169.7391h-6.0387v-3.4428h16.1726v3.4428h-6.0248v16.9084Z"/><path class="cls-2" d="M160.5747,186.6475V166.2963h8.6486a14.7984,14.7984,0,0,1,4.7406.5485,4.6754,4.6754,0,0,1,2.3671,1.95,5.8623,5.8623,0,0,1,.8884,3.2067,5.4329,5.4329,0,0,1-1.3466,3.7831,6.4668,6.4668,0,0,1-4.0258,1.8809,9.5817,9.5817,0,0,1,2.2,1.7075,23.1858,23.1858,0,0,1,2.3393,3.3039l2.4849,3.97h-4.9143l-2.9708-4.4284a28.7,28.7,0,0,0-2.1656-2.9914,3.1568,3.1568,0,0,0-1.2355-.8472,6.7838,6.7838,0,0,0-2.0684-.2289h-.833v8.4959Zm4.1091-11.7443h3.04a15.6984,15.6984,0,0,0,3.6927-.25,2.2134,2.2134,0,0,0,1.1522-.8607,2.65,2.65,0,0,0,.4165-1.527,2.4417,2.4417,0,0,0-.5485-1.6591,2.5176,2.5176,0,0,0-1.5477-.798q-.5-.0694-2.9986-.0694h-3.2068Z"/><path class="cls-2" d="M180.26,176.5968a12.9433,12.9433,0,0,1,.93-5.22,9.5765,9.5765,0,0,1,1.8948-2.79,7.9227,7.9227,0,0,1,2.6308-1.8324,11.1721,11.1721,0,0,1,4.3867-.8052,9.555,9.555,0,0,1,7.1978,2.79q2.7,2.79,2.7,7.76,0,4.9281-2.6793,7.7113a9.48,9.48,0,0,1-7.1631,2.7836,9.58,9.58,0,0,1-7.2188-2.7694A10.5112,10.5112,0,0,1,180.26,176.5968Zm4.234-.1388a7.6263,7.6263,0,0,0,1.5965,5.2407,5.4885,5.4885,0,0,0,8.0865.0135,7.7777,7.7777,0,0,0,1.5755-5.31,7.6522,7.6522,0,0,0-1.5342-5.22,5.683,5.683,0,0,0-8.1695.021A7.6886,7.6886,0,0,0,184.4936,176.458Z"/></g></svg>